<svg width="18" height="18" viewBox="0 0 18 18" fill="none" xmlns="http://www.w3.org/2000/svg">
<path fill-rule="evenodd" clip-rule="evenodd" d="M17.5333 9.26223C17.5333 9.83932 17.4746 10.4156 17.3592 10.9774C17.2467 11.5258 17.08 12.0642 16.8616 12.5789C16.6483 13.0844 16.3837 13.5717 16.0745 14.026C15.77 14.4775 15.4191 14.9011 15.0336 15.2872C14.6474 15.6716 14.2224 16.0215 13.7711 16.3274C13.3152 16.6344 12.8273 16.8987 12.3214 17.113C11.806 17.3302 11.2664 17.4966 10.7184 17.6089C10.1559 17.7246 9.57754 17.7837 8.99961 17.7837C8.42125 17.7837 7.84289 17.7246 7.2812 17.6089C6.73243 17.4966 6.19281 17.3302 5.67778 17.113C5.17193 16.8987 4.68355 16.6344 4.2277 16.3274C3.77643 16.0216 3.35141 15.6716 2.96597 15.2872C2.58013 14.9011 2.22926 14.4775 1.92425 14.026C1.61673 13.5717 1.3517 13.0844 1.13754 12.5789C0.919167 12.0642 0.752099 11.5257 0.639172 10.9774C0.52501 10.4156 0.46666 9.83932 0.46666 9.26223C0.46666 8.6847 0.524977 8.10717 0.639206 7.54666C0.752132 6.99825 0.919201 6.45901 1.13757 5.94516C1.35173 5.4392 1.61677 4.95156 1.92428 4.49717C2.2293 4.04532 2.58017 3.62255 2.96601 3.236C3.35145 2.85151 3.77647 2.50245 4.22774 2.19704C4.68359 1.8887 5.17196 1.62452 5.67781 1.4098C6.19285 1.19214 6.73243 1.02532 7.28123 0.91382C7.84292 0.798989 8.42128 0.740723 8.99964 0.740723C9.57757 0.740723 10.1559 0.798989 10.7185 0.91382C11.2664 1.02535 11.806 1.19218 12.3215 1.4098C12.8273 1.62449 13.3153 1.8887 13.7711 2.19704C14.2224 2.50245 14.6474 2.85151 15.0337 3.236C15.4191 3.62255 15.77 4.04532 16.0746 4.49717C16.3837 4.95156 16.6483 5.43924 16.8616 5.94516C17.08 6.45901 17.2467 6.99825 17.3592 7.54666C17.4746 8.10717 17.5333 8.6847 17.5333 9.26223ZM5.89024 2.6801C3.85804 3.63838 2.34129 5.50826 1.86834 7.7618C2.06046 7.76347 5.09729 7.80176 8.59621 6.87343C7.33491 4.6357 5.98734 2.80954 5.89024 2.6801ZM9.19998 7.994C5.44772 9.11574 1.8471 9.03502 1.71794 9.03005C1.71583 9.10826 1.71209 9.18397 1.71209 9.26222C1.71209 11.1317 2.41838 12.836 3.57927 14.1246C3.57677 14.1209 5.57107 10.5879 9.50376 9.31798C9.59875 9.28636 9.69544 9.25805 9.79127 9.2306C9.60837 8.81703 9.40873 8.4026 9.19998 7.994ZM13.8123 3.80064C12.5293 2.67094 10.8447 1.98569 8.99958 1.98569C8.40746 1.98569 7.83284 2.05726 7.28241 2.18957C7.39156 2.33605 8.7604 4.14934 10.0067 6.43446C12.7565 5.40508 13.7944 3.82726 13.8123 3.80064ZM10.288 10.4364C10.2718 10.4418 10.2556 10.4464 10.2397 10.4522C5.93995 11.949 4.53581 14.9655 4.52062 14.9984C5.7578 15.9591 7.30954 16.5388 8.99963 16.5388C10.0088 16.5388 10.9701 16.3336 11.8447 15.9621C11.7368 15.3263 11.3135 13.0977 10.288 10.4364ZM13.0719 15.2972C14.7082 14.1945 15.8703 12.4437 16.1945 10.4156C16.0445 10.3673 14.0057 9.72278 11.6534 10.0994C12.6093 12.7224 12.9977 14.8586 13.0719 15.2972ZM10.5676 7.5188C10.7368 7.86583 10.9006 8.21903 11.0518 8.574C11.1056 8.70133 11.1581 8.82617 11.2093 8.95097C13.7128 8.6364 16.1791 9.16566 16.2846 9.18727C16.2679 7.4622 15.65 5.87898 14.6274 4.63948C14.6137 4.65899 13.4449 6.34541 10.5676 7.5188Z" fill="white"/>
</svg>
