<svg width="18" height="18" viewBox="0 0 18 18" fill="none" xmlns="http://www.w3.org/2000/svg">
<path fill-rule="evenodd" clip-rule="evenodd" d="M9.00079 0.740723C6.68326 0.740723 6.39241 0.750856 5.48218 0.792279C4.57372 0.833879 3.95363 0.977703 3.41105 1.18873C2.8498 1.40669 2.3737 1.69824 1.89939 2.17274C1.42471 2.64705 1.13316 3.12315 0.914486 3.68422C0.702929 4.22698 0.558927 4.84725 0.518038 5.75535C0.477326 6.66558 0.46666 6.95661 0.46666 9.27414C0.46666 11.5917 0.476971 11.8816 0.518216 12.7919C0.559994 13.7003 0.703818 14.3204 0.914664 14.863C1.1328 15.4243 1.42436 15.9003 1.89885 16.3747C2.37299 16.8493 2.84908 17.1416 3.40998 17.3596C3.95292 17.5706 4.57319 17.7144 5.48147 17.756C6.3917 17.7974 6.68237 17.8076 8.99973 17.8076C11.3174 17.8076 11.6074 17.7974 12.5176 17.756C13.4261 17.7144 14.0469 17.5706 14.5898 17.3596C15.1509 17.1416 15.6263 16.8493 16.1004 16.3747C16.5751 15.9003 16.8667 15.4243 17.0853 14.8632C17.2951 14.3204 17.4391 13.7001 17.4818 12.792C17.5227 11.8818 17.5333 11.5917 17.5333 9.27414C17.5333 6.95661 17.5227 6.66576 17.4818 5.75553C17.4391 4.84708 17.2951 4.22698 17.0853 3.6844C16.8667 3.12315 16.5751 2.64705 16.1004 2.17274C15.6258 1.69807 15.1511 1.40651 14.5893 1.18873C14.0453 0.977703 13.4248 0.833879 12.5164 0.792279C11.6062 0.750856 11.3164 0.740723 8.99813 0.740723H9.00079ZM8.23524 2.27849C8.46244 2.27814 8.71595 2.27849 9.00076 2.27849C11.2792 2.27849 11.5492 2.28667 12.449 2.32756C13.281 2.3656 13.7325 2.50463 14.0333 2.62143C14.4316 2.7761 14.7155 2.96099 15.014 3.25966C15.3126 3.55833 15.4975 3.84278 15.6526 4.241C15.7694 4.54145 15.9086 4.99301 15.9464 5.82502C15.9873 6.72458 15.9962 6.99481 15.9962 9.27217C15.9962 11.5495 15.9873 11.8197 15.9464 12.7193C15.9084 13.5513 15.7694 14.0029 15.6526 14.3033C15.4979 14.7016 15.3126 14.9851 15.014 15.2836C14.7153 15.5823 14.4317 15.7672 14.0333 15.9218C13.7329 16.0392 13.281 16.1778 12.449 16.2159C11.5494 16.2568 11.2792 16.2657 9.00076 16.2657C6.72215 16.2657 6.45211 16.2568 5.55254 16.2159C4.72053 16.1775 4.26897 16.0385 3.96799 15.9217C3.56977 15.767 3.28532 15.5821 2.98665 15.2834C2.68798 14.9848 2.50309 14.701 2.34806 14.3026C2.23126 14.0022 2.09206 13.5506 2.0542 12.7186C2.01331 11.819 2.00513 11.5488 2.00513 9.27003C2.00513 6.99125 2.01331 6.72245 2.0542 5.82289C2.09224 4.99088 2.23126 4.53932 2.34806 4.23851C2.50273 3.84029 2.68798 3.55584 2.98665 3.25717C3.28532 2.9585 3.56977 2.77361 3.96799 2.61858C4.2688 2.50125 4.72053 2.36258 5.55254 2.32436C6.33975 2.2888 6.64482 2.27814 8.23524 2.27636V2.27849ZM13.5558 3.6954C12.9905 3.6954 12.5318 4.15354 12.5318 4.71905C12.5318 5.28439 12.9905 5.74307 13.5558 5.74307C14.1212 5.74307 14.5798 5.28439 14.5798 4.71905C14.5798 4.15372 14.1212 3.6954 13.5558 3.6954ZM9.00081 4.89185C6.58069 4.89185 4.61854 6.85401 4.61854 9.27412C4.61854 11.6942 6.58069 13.6555 9.00081 13.6555C11.4209 13.6555 13.3824 11.6942 13.3824 9.27412C13.3824 6.85401 11.4209 4.89185 9.00081 4.89185ZM9.00077 6.42965C10.5716 6.42965 11.8452 7.70308 11.8452 9.27412C11.8452 10.845 10.5716 12.1186 9.00077 12.1186C7.42974 12.1186 6.1563 10.845 6.1563 9.27412C6.1563 7.70308 7.42974 6.42965 9.00077 6.42965Z" fill="white"/>
</svg>
